# xmcd CD Database Entry
#
# Track frame offsets:
# 150
# 33135
# 62421
# 84621
# 105737
# 130402
# 144335
# 180411
# 193556
# 221074
# 239460
# 260955
#
# Disc length: 3806 seconds
#
# Revision: 1
# Processed by: cddbd v1.4PL0 Copyright (c) Steve Scherf et al.
# Submitted via: tcd 2.0b
#
DISCID=ab0edc0c
DTITLE=Al Di Meola - The Infinite Desire
DYEAR=1900
DGENRE=
TTITLE0=Beyond the Mirage
TTITLE1=Shaking the Spirits
TTITLE2=Vizzini
TTITLE3=In My Mother's Eyes
TTITLE4=The Infinite Desire
TTITLE5=Invention of the Monsters
TTITLE6=Istanbul
TTITLE7=Azzura
TTITLE8=Big Sky Azzura
TTITLE9=Race with Devil on Turkish Highway
TTITLE10=Valentina
TTITLE11=The Infinite Desire
EXTD=
EXTT0=
EXTT1=
EXTT2=
EXTT3=
EXTT4=
EXTT5=
EXTT6=
EXTT7=
EXTT8=
EXTT9=
EXTT10=
EXTT11=
PLAYORDER=
